HIERARCHY
ROOT hip
{
  OFFSET 0 90.174 2.4664
  CHANNELS 6 Xposition Yposition Zposition Zrotation Xrotation Yrotation
  JOINT abdomen
  {
    OFFSET 0 -1.186 -1.5018
    CHANNELS 6 Xposition Yposition Zposition Zrotation Xrotation Yrotation
    JOINT abdomen2
    {
      OFFSET 0 9.964 0.2134
      CHANNELS 6 Xposition Yposition Zposition Zrotation Xrotation Yrotation
      JOINT chest
      {
        OFFSET 0 13.134 -3.2573
        CHANNELS 6 Xposition Yposition Zposition Zrotation Xrotation Yrotation
        JOINT neck
        {
          OFFSET 0 20.686 -1.6905
          CHANNELS 6 Xposition Yposition Zposition Zrotation Xrotation Yrotation
          JOINT head
          {
            OFFSET 0 7.238 -0.1237
            CHANNELS 6 Xposition Yposition Zposition Zrotation Xrotation Yrotation
            End Site
            {
              OFFSET 0 0 0
            }
          }
        }
        JOINT lCollar
        {
          OFFSET 1.7069 20.075 5.0056
          CHANNELS 6 Xposition Yposition Zposition Zrotation Xrotation Yrotation
          JOINT lShldr
          {
            OFFSET 13.6458 -0.047 -4.849
            CHANNELS 6 Xposition Yposition Zposition Zrotation Xrotation Yrotation
            JOINT lForeArm
            {
              OFFSET 28.3255 -0.9759 2.2888
              CHANNELS 6 Xposition Yposition Zposition Zrotation Xrotation Yrotation
              JOINT lHand
              {
                OFFSET 22.1583 -0.53 10.8316
                CHANNELS 6 Xposition Yposition Zposition Zrotation Xrotation Yrotation
                JOINT lThumb1
                {
                  OFFSET 0.786 0.112 2.5817
                  CHANNELS 6 Xposition Yposition Zposition Zrotation Xrotation Yrotation
                  JOINT lThumb2
                  {
                    OFFSET 0.3601 -0.878 4.2331
                    CHANNELS 6 Xposition Yposition Zposition Zrotation Xrotation Yrotation
                    JOINT lThumb2_End
                    {
                      OFFSET 1.8127 -1.216 2.2227
                      CHANNELS 6 Xposition Yposition Zposition Zrotation Xrotation Yrotation
                      End Site
                      {
                        OFFSET 0.0181 -0.0122 0.0222
                      }
                    }
                  }
                }
                JOINT lCarpal1
                {
                  OFFSET 0.9571 1.114 1.7695
                  CHANNELS 6 Xposition Yposition Zposition Zrotation Xrotation Yrotation
                  JOINT lIndex1
                  {
                    OFFSET 4.1246 0.487 4.1451
                    CHANNELS 6 Xposition Yposition Zposition Zrotation Xrotation Yrotation
                    JOINT lIndex2
                    {
                      OFFSET 3.4052 -1.454 2.7682
                      CHANNELS 6 Xposition Yposition Zposition Zrotation Xrotation Yrotation
                      JOINT lIndex2_End
                      {
                        OFFSET 1.4531 -1.795 1.2713
                        CHANNELS 6 Xposition Yposition Zposition Zrotation Xrotation Yrotation
                        End Site
                        {
                          OFFSET 0.0145 -0.0179 0.0127
                        }
                      }
                    }
                  }
                  JOINT lMid1
                  {
                    OFFSET 5.6954 0.21 2.1184
                    CHANNELS 6 Xposition Yposition Zposition Zrotation Xrotation Yrotation
                    JOINT lMid2
                    {
                      OFFSET 3.9766 -1.54 2.3863
                      CHANNELS 6 Xposition Yposition Zposition Zrotation Xrotation Yrotation
                      JOINT lMid2_End
                      {
                        OFFSET 1.4042 -1.926 1.125
                        CHANNELS 6 Xposition Yposition Zposition Zrotation Xrotation Yrotation
                        End Site
                        {
                          OFFSET 0.014 -0.0193 0.0113
                        }
                      }
                    }
                  }
                }
                JOINT lCarpal2
                {
                  OFFSET 2.0956 0.66 -0.3894
                  CHANNELS 6 Xposition Yposition Zposition Zrotation Xrotation Yrotation
                  JOINT lRing1
                  {
                    OFFSET 5.0395 -0.09 2.4971
                    CHANNELS 6 Xposition Yposition Zposition Zrotation Xrotation Yrotation
                    JOINT lRing2
                    {
                      OFFSET 3.7921 -1.552 1.4806
                      CHANNELS 6 Xposition Yposition Zposition Zrotation Xrotation Yrotation
                      JOINT lRing2_End
                      {
                        OFFSET 1.4655 -1.808 0.9609
                        CHANNELS 6 Xposition Yposition Zposition Zrotation Xrotation Yrotation
                        End Site
                        {
                          OFFSET 0.0147 -0.0181 0.0096
                        }
                      }
                    }
                  }
                  JOINT lPinky1
                  {
                    OFFSET 4.9141 -1.269 0.3591
                    CHANNELS 6 Xposition Yposition Zposition Zrotation Xrotation Yrotation
                    JOINT lPinky2
                    {
                      OFFSET 3.1477 -1.685 0.8462
                      CHANNELS 6 Xposition Yposition Zposition Zrotation Xrotation Yrotation
                      JOINT lPinky2_End
                      {
                        OFFSET 0.8055 -1.585 0.7955
                        CHANNELS 6 Xposition Yposition Zposition Zrotation Xrotation Yrotation
                        End Site
                        {
                          OFFSET 0.0081 -0.0158 0.008
                        }
                      }
                    }
                  }
                }
              }
            }
          }
        }
        JOINT rCollar
        {
          OFFSET -1.7069 20.075 5.0056
          CHANNELS 6 Xposition Yposition Zposition Zrotation Xrotation Yrotation
          JOINT rShldr
          {
            OFFSET -13.6458 -0.047 -4.849
            CHANNELS 6 Xposition Yposition Zposition Zrotation Xrotation Yrotation
            JOINT rForeArm
            {
              OFFSET -28.3255 -0.9759 2.2888
              CHANNELS 6 Xposition Yposition Zposition Zrotation Xrotation Yrotation
              JOINT rHand
              {
                OFFSET -22.1583 -0.53 10.8316
                CHANNELS 6 Xposition Yposition Zposition Zrotation Xrotation Yrotation
                JOINT rThumb1
                {
                  OFFSET -0.786 0.112 2.5817
                  CHANNELS 6 Xposition Yposition Zposition Zrotation Xrotation Yrotation
                  JOINT rThumb2
                  {
                    OFFSET -0.3601 -0.878 4.2331
                    CHANNELS 6 Xposition Yposition Zposition Zrotation Xrotation Yrotation
                    JOINT rThumb2_End
                    {
                      OFFSET -1.8127 -1.216 2.2227
                      CHANNELS 6 Xposition Yposition Zposition Zrotation Xrotation Yrotation
                      End Site
                      {
                        OFFSET -0.0181 -0.0122 0.0222
                      }
                    }
                  }
                }
                JOINT rCarpal1
                {
                  OFFSET -0.9571 1.114 1.7695
                  CHANNELS 6 Xposition Yposition Zposition Zrotation Xrotation Yrotation
                  JOINT rIndex1
                  {
                    OFFSET -4.1246 0.487 4.1451
                    CHANNELS 6 Xposition Yposition Zposition Zrotation Xrotation Yrotation
                    JOINT rIndex2
                    {
                      OFFSET -3.4052 -1.454 2.7682
                      CHANNELS 6 Xposition Yposition Zposition Zrotation Xrotation Yrotation
                      JOINT rIndex2_End
                      {
                        OFFSET -1.4531 -1.795 1.2713
                        CHANNELS 6 Xposition Yposition Zposition Zrotation Xrotation Yrotation
                        End Site
                        {
                          OFFSET -0.0145 -0.018 0.0127
                        }
                      }
                    }
                  }
                  JOINT rMid1
                  {
                    OFFSET -5.6954 0.21 2.1184
                    CHANNELS 6 Xposition Yposition Zposition Zrotation Xrotation Yrotation
                    JOINT rMid2
                    {
                      OFFSET -3.9766 -1.54 2.3863
                      CHANNELS 6 Xposition Yposition Zposition Zrotation Xrotation Yrotation
                      JOINT rMid2_End
                      {
                        OFFSET -1.4042 -1.926 1.125
                        CHANNELS 6 Xposition Yposition Zposition Zrotation Xrotation Yrotation
                        End Site
                        {
                          OFFSET -0.014 -0.0193 0.0113
                        }
                      }
                    }
                  }
                }
                JOINT rCarpal2
                {
                  OFFSET -2.0956 0.66 -0.3894
                  CHANNELS 6 Xposition Yposition Zposition Zrotation Xrotation Yrotation
                  JOINT rRing1
                  {
                    OFFSET -5.0395 -0.09 2.4971
                    CHANNELS 6 Xposition Yposition Zposition Zrotation Xrotation Yrotation
                    JOINT rRing2
                    {
                      OFFSET -3.7921 -1.552 1.4806
                      CHANNELS 6 Xposition Yposition Zposition Zrotation Xrotation Yrotation
                      JOINT rRing2_End
                      {
                        OFFSET -1.4655 -1.808 0.9609
                        CHANNELS 6 Xposition Yposition Zposition Zrotation Xrotation Yrotation
                        End Site
                        {
                          OFFSET -0.0147 -0.0181 0.0096
                        }
                      }
                    }
                  }
                  JOINT rPinky1
                  {
                    OFFSET -4.9141 -1.269 0.3592
                    CHANNELS 6 Xposition Yposition Zposition Zrotation Xrotation Yrotation
                    JOINT rPinky2
                    {
                      OFFSET -3.1477 -1.685 0.8462
                      CHANNELS 6 Xposition Yposition Zposition Zrotation Xrotation Yrotation
                      JOINT rPinky2_End
                      {
                        OFFSET -0.8055 -1.585 0.7955
                        CHANNELS 6 Xposition Yposition Zposition Zrotation Xrotation Yrotation
                        End Site
                        {
                          OFFSET -0.0081 -0.0158 0.008
                        }
                      }
                    }
                  }
                }
              }
            }
          }
        }
      }
    }
  }
  JOINT lThigh
  {
    OFFSET 8.367 -8.2066 0.5982
    CHANNELS 6 Xposition Yposition Zposition Zrotation Xrotation Yrotation
    JOINT lShin
    {
      OFFSET 2.1923 -43.463 -0.4932
      CHANNELS 6 Xposition Yposition Zposition Zrotation Xrotation Yrotation
      JOINT lFoot
      {
        OFFSET 0.7333 -45.8593 -2.6451
        CHANNELS 6 Xposition Yposition Zposition Zrotation Xrotation Yrotation
        End Site
        {
          OFFSET 2.6618 -4.2699 12.3931
        }
      }
    }
  }
  JOINT rThigh
  {
    OFFSET -8.367 -8.2066 0.5982
    CHANNELS 6 Xposition Yposition Zposition Zrotation Xrotation Yrotation
    JOINT rShin
    {
      OFFSET -2.1923 -43.463 -0.4931
      CHANNELS 6 Xposition Yposition Zposition Zrotation Xrotation Yrotation
      JOINT rFoot
      {
        OFFSET -0.7333 -45.8593 -2.6451
        CHANNELS 6 Xposition Yposition Zposition Zrotation Xrotation Yrotation
        End Site
        {
          OFFSET -2.6618 -4.2699 12.3931
        }
      }
    }
  }
}
MOTION
Frames:	4
Frame Time:	0.0333333
1.63099 -0.462053 -69.6485 90.1445 -87.3629 0.137961 -5.55112e-017 -1.186 -1.5018 -2.99564 -0.730844 -0.945074 -8.88178e-016 9.964 0.2134 -6.0036 -1.4112 -1.92728 0 13.134 -3.2573 -6.00362 -1.41121 -1.92727 0 20.686 -1.6905 -8.3861 6.57078 5.54379 0 7.238 -0.1237 -1.19851 -4.60328 11.8292 1.7069 20.075 5.0056 -2.11167 -14.2058 -1.54041 13.6458 -0.047 -4.849 -68.0607 -25.1629 -24.523 28.3255 -0.9759 2.2888 -52.8534 11.4284 6.84489 22.1583 -0.53 10.8316 -41.302 10.9459 0.89817 0.786 0.112 2.5817 1.43413e-006 -1.55545e-006 1.04844e-006 0.3601 -0.878 4.2331 5.11596e-006 2.94933e-006 1.86831e-006 1.8127 -1.216 2.2227 -3.68202e-007 -3.5734e-006 -7.43197e-007 0.9571 1.114 1.7695 -2.20695e-032 -3.18055e-015 -3.97569e-016 4.1246 0.487 4.1451 1.43413e-006 -1.55545e-006 1.04844e-006 3.4052 -1.454 2.7682 5.11596e-006 2.94933e-006 1.86831e-006 1.4531 -1.795 1.2713 -3.68202e-007 -3.5734e-006 -7.43197e-007 5.6954 0.21 2.1184 1.43413e-006 -1.55545e-006 1.04844e-006 3.9766 -1.54 2.3863 5.11596e-006 2.94933e-006 1.86831e-006 1.4042 -1.926 1.125 -3.68202e-007 -3.5734e-006 -7.43197e-007 2.0956 0.66 -0.3894 -2.20695e-032 -3.18055e-015 -3.97569e-016 5.0395 -0.09 2.4971 1.43413e-006 -1.55545e-006 1.04844e-006 3.7921 -1.552 1.4806 5.11596e-006 2.94933e-006 1.86831e-006 1.4655 -1.808 0.9609 -3.68202e-007 -3.5734e-006 -7.43197e-007 4.9141 -1.269 0.3591 1.43413e-006 -1.55545e-006 1.04844e-006 3.1477 -1.685 0.8462 5.11596e-006 2.94933e-006 1.86831e-006 0.8055 -1.585 0.7955 -3.68202e-007 -3.5734e-006 -7.43197e-007 -1.7069 20.075 5.0056 21.2856 5.01167 6.88326 -13.6458 -0.047 -4.849 58.3875 -3.96171 18.6053 -28.3255 -0.9759 2.2888 73.7681 -35.3219 49.6671 -22.1583 -0.53 10.8316 68.7179 37.0801 -41.913 -0.786 0.112 2.5817 3.18055e-015 6.36111e-015 1.59028e-015 -0.3601 -0.878 4.2331 -1.59028e-015 0 3.18055e-015 -1.8127 -1.216 2.2227 -2.24497e-007 -9.00561e-007 -1.3998e-006 -0.9571 1.114 1.7695 5.56597e-015 3.18055e-015 -1.59028e-015 -4.1246 0.487 4.1451 -7.95139e-016 3.18055e-015 6.36111e-015 -3.4052 -1.454 2.7682 1.59028e-015 6.36111e-015 1.59028e-015 -1.4531 -1.795 1.2713 -2.24497e-007 -9.00561e-007 -1.3998e-006 -5.6954 0.21 2.1184 -7.95139e-016 3.18055e-015 6.36111e-015 -3.9766 -1.54 2.3863 1.59028e-015 6.36111e-015 1.59028e-015 -1.4042 -1.926 1.125 -2.24497e-007 -9.00561e-007 -1.3998e-006 -2.0956 0.66 -0.3894 5.56597e-015 3.18055e-015 -1.59028e-015 -5.0395 -0.09 2.4971 -7.95139e-016 3.18055e-015 6.36111e-015 -3.7921 -1.552 1.4806 1.59028e-015 6.36111e-015 1.59028e-015 -1.4655 -1.808 0.9609 -2.24497e-007 -9.00561e-007 -1.3998e-006 -4.9141 -1.269 0.3592 -7.95139e-016 3.18055e-015 6.36111e-015 -3.1477 -1.685 0.8462 1.59028e-015 6.36111e-015 1.59028e-015 -0.8055 -1.585 0.7955 -2.24497e-007 -9.00561e-007 -1.3998e-006 8.367 -8.2066 0.5982 17.4274 -26.0053 17.6972 2.1923 -43.463 -0.4932 -58.7217 42.3584 37.2573 0.7333 -45.8593 -2.6451 14.9149 25.9257 4.38884 -8.367 -8.2066 0.5982 9.27532 -9.64538 -15.3436 -2.1923 -43.463 -0.4931 -74.1227 62.0632 47.8819 -0.7333 -45.8593 -2.6451 10.2478 15.8232 6.17946 
1.68067 -0.462549 -69.6182 90.1094 -86.7094 0.103251 0 -1.186 -1.5018 -3.00052 -0.941123 -0.947585 -8.88178e-016 9.964 0.2134 -6.01737 -1.83113 -1.94344 0 13.134 -3.2573 -6.01733 -1.83116 -1.94345 0 20.686 -1.6905 -8.40393 6.14819 5.63394 0 7.238 -0.1237 -1.22084 -4.75253 12.2034 1.7069 20.075 5.0056 -2.30749 -13.8464 -1.54624 13.6458 -0.047 -4.849 -68.0607 -25.1629 -24.523 28.3255 -0.9759 2.2888 -52.8534 11.4284 6.84489 22.1583 -0.53 10.8316 -41.2964 10.9694 1.09966 0.786 0.112 2.5817 -1.418e-006 -5.33925e-007 -4.58581e-006 0.3601 -0.878 4.2331 -7.00428e-007 2.02594e-006 -2.55987e-006 1.8127 -1.216 2.2227 -3.50214e-007 1.01297e-006 -1.27993e-006 0.9571 1.114 1.7695 -7.95139e-016 3.18055e-015 -3.97569e-016 4.1246 0.487 4.1451 -1.418e-006 -5.33925e-007 -4.58581e-006 3.4052 -1.454 2.7682 -7.00428e-007 2.02594e-006 -2.55987e-006 1.4531 -1.795 1.2713 -3.50214e-007 1.01297e-006 -1.27993e-006 5.6954 0.21 2.1184 -1.418e-006 -5.33925e-007 -4.58581e-006 3.9766 -1.54 2.3863 -7.00428e-007 2.02594e-006 -2.55987e-006 1.4042 -1.926 1.125 -3.50214e-007 1.01297e-006 -1.27993e-006 2.0956 0.66 -0.3894 -7.95139e-016 3.18055e-015 -3.97569e-016 5.0395 -0.09 2.4971 -1.418e-006 -5.33925e-007 -4.58581e-006 3.7921 -1.552 1.4806 -7.00428e-007 2.02594e-006 -2.55987e-006 1.4655 -1.808 0.9609 -3.50214e-007 1.01297e-006 -1.27993e-006 4.9141 -1.269 0.3591 -1.418e-006 -5.33925e-007 -4.58581e-006 3.1477 -1.685 0.8462 -7.00428e-007 2.02594e-006 -2.55987e-006 0.8055 -1.585 0.7955 -3.50214e-007 1.01297e-006 -1.27993e-006 -1.7069 20.075 5.0056 21.2855 5.01162 6.88324 -13.6458 -0.047 -4.849 58.3875 -3.96171 18.6053 -28.3255 -0.9759 2.2888 73.7681 -35.3219 49.6671 -22.1583 -0.53 10.8316 68.7179 37.0801 -41.913 -0.786 0.112 2.5817 -2.07043e-006 2.04861e-007 1.62125e-007 -0.3601 -0.878 4.2331 5.56597e-015 0 4.77083e-015 -1.8127 -1.216 2.2227 2.38542e-015 -6.36111e-015 3.18055e-015 -0.9571 1.114 1.7695 -3.18055e-015 3.18055e-015 4.77083e-015 -4.1246 0.487 4.1451 -2.07043e-006 2.04861e-007 1.62125e-007 -3.4052 -1.454 2.7682 3.57812e-015 -3.18055e-015 4.77083e-015 -1.4531 -1.795 1.2713 1.98785e-015 -3.18055e-015 4.77083e-015 -5.6954 0.21 2.1184 -2.07043e-006 2.04861e-007 1.62125e-007 -3.9766 -1.54 2.3863 3.57812e-015 -3.18055e-015 4.77083e-015 -1.4042 -1.926 1.125 1.98785e-015 -3.18055e-015 4.77083e-015 -2.0956 0.66 -0.3894 -3.18055e-015 3.18055e-015 4.77083e-015 -5.0395 -0.09 2.4971 -2.07043e-006 2.04861e-007 1.62125e-007 -3.7921 -1.552 1.4806 3.57812e-015 -3.18055e-015 4.77083e-015 -1.4655 -1.808 0.9609 1.98785e-015 -3.18055e-015 4.77083e-015 -4.9141 -1.269 0.3592 -2.07043e-006 2.04861e-007 1.62125e-007 -3.1477 -1.685 0.8462 3.57812e-015 -3.18055e-015 4.77083e-015 -0.8055 -1.585 0.7955 1.98785e-015 -3.18055e-015 4.77083e-015 8.367 -8.2066 0.5982 17.6767 -26.6179 18.1308 2.1923 -43.463 -0.4932 -58.8646 42.2802 37.2895 0.7333 -45.8593 -2.6451 15.1299 26.0523 4.28153 -8.367 -8.2066 0.5982 9.32356 -10.4823 -15.2452 -2.1923 -43.463 -0.4931 -74.5878 62.0834 48.2894 -0.7333 -45.8593 -2.6451 10.2428 15.8352 6.17568 
1.7307 -0.46315 -69.5873 90.086 -86.056 0.0802816 0 -1.186 -1.5018 -3.00547 -1.1513 -0.950086 8.88178e-016 9.964 0.2134 -6.03139 -2.25105 -1.95978 -1.77636e-015 13.134 -3.2573 -6.03137 -2.25106 -1.9598 -3.55271e-015 20.686 -1.6905 -8.42113 5.72602 5.72392 0 7.238 -0.1237 -1.2422 -4.90205 12.5778 1.7069 20.075 5.0056 -2.50272 -13.4869 -1.55075 13.6458 -0.047 -4.849 -68.0607 -25.1629 -24.523 28.3255 -0.9759 2.2888 -52.8534 11.4284 6.84489 22.1583 -0.53 10.8316 -41.2909 10.9929 1.30117 0.786 0.112 2.5817 -3.70433e-006 -4.50269e-006 -8.26992e-007 0.3601 -0.878 4.2331 1.60891e-008 4.58627e-006 -5.30292e-007 1.8127 -1.216 2.2227 2.97126e-006 -2.64187e-006 -6.70706e-007 0.9571 1.114 1.7695 3.97569e-016 -6.36111e-015 3.97569e-016 4.1246 0.487 4.1451 -3.70433e-006 -4.50269e-006 -8.26992e-007 3.4052 -1.454 2.7682 1.60891e-008 4.58627e-006 -5.30292e-007 1.4531 -1.795 1.2713 2.97126e-006 -2.64187e-006 -6.70706e-007 5.6954 0.21 2.1184 -3.70433e-006 -4.50269e-006 -8.26992e-007 3.9766 -1.54 2.3863 1.60891e-008 4.58627e-006 -5.30292e-007 1.4042 -1.926 1.125 2.97126e-006 -2.64187e-006 -6.70706e-007 2.0956 0.66 -0.3894 3.97569e-016 -6.36111e-015 3.97569e-016 5.0395 -0.09 2.4971 -3.70433e-006 -4.50269e-006 -8.26992e-007 3.7921 -1.552 1.4806 1.60891e-008 4.58627e-006 -5.30292e-007 1.4655 -1.808 0.9609 2.97126e-006 -2.64187e-006 -6.70706e-007 4.9141 -1.269 0.3591 -3.70433e-006 -4.50269e-006 -8.26992e-007 3.1477 -1.685 0.8462 1.60891e-008 4.58627e-006 -5.30292e-007 0.8055 -1.585 0.7955 2.97126e-006 -2.64187e-006 -6.70706e-007 -1.7069 20.075 5.0056 21.2856 5.01167 6.88323 -13.6458 -0.047 -4.849 58.3875 -3.96172 18.6053 -28.3255 -0.9759 2.2888 73.7681 -35.3219 49.6671 -22.1583 -0.53 10.8316 68.7179 37.0801 -41.913 -0.786 0.112 2.5817 -4.99829e-006 -3.99965e-006 2.67634e-006 -0.3601 -0.878 4.2331 2.16341e-007 9.05488e-007 1.39962e-006 -1.8127 -1.216 2.2227 -5.81483e-006 -2.10589e-006 -5.3426e-007 -0.9571 1.114 1.7695 -5.96354e-015 -3.18055e-015 -3.18055e-015 -4.1246 0.487 4.1451 -4.99829e-006 -3.99965e-006 2.67634e-006 -3.4052 -1.454 2.7682 2.16341e-007 9.05488e-007 1.39962e-006 -1.4531 -1.795 1.2713 -5.81483e-006 -2.10589e-006 -5.3426e-007 -5.6954 0.21 2.1184 -4.99829e-006 -3.99965e-006 2.67634e-006 -3.9766 -1.54 2.3863 2.16341e-007 9.05488e-007 1.39962e-006 -1.4042 -1.926 1.125 -5.81483e-006 -2.10589e-006 -5.3426e-007 -2.0956 0.66 -0.3894 -5.96354e-015 -3.18055e-015 -3.18055e-015 -5.0395 -0.09 2.4971 -4.99829e-006 -3.99965e-006 2.67634e-006 -3.7921 -1.552 1.4806 2.16341e-007 9.05488e-007 1.39962e-006 -1.4655 -1.808 0.9609 -5.81483e-006 -2.10589e-006 -5.3426e-007 -4.9141 -1.269 0.3592 -4.99829e-006 -3.99965e-006 2.67634e-006 -3.1477 -1.685 0.8462 2.16341e-007 9.05488e-007 1.39962e-006 -0.8055 -1.585 0.7955 -5.81483e-006 -2.10589e-006 -5.3426e-007 8.367 -8.2066 0.5982 17.9322 -27.2286 18.5697 2.1923 -43.463 -0.4932 -59.0066 42.2018 37.321 0.7333 -45.8593 -2.6451 15.3453 26.1787 4.17361 -8.367 -8.2066 0.5982 9.37348 -11.3199 -15.1458 -2.1923 -43.463 -0.4931 -75.0552 62.1023 48.6993 -0.7333 -45.8593 -2.6451 10.2377 15.8473 6.17188 
1.78106 -0.463846 -69.5558 90.0692 -85.4028 0.0638354 5.55112e-017 -1.186 -1.5018 -3.01043 -1.36151 -0.95262 0 9.964 0.2134 -6.04553 -2.67088 -1.97628 -1.77636e-015 13.134 -3.2573 -6.04556 -2.67088 -1.97628 0 20.686 -1.6905 -8.43775 5.30437 5.8138 7.10543e-015 7.238 -0.1237 -1.26263 -5.05175 12.9524 1.7069 20.075 5.0056 -2.6977 -13.1275 -1.554 13.6458 -0.047 -4.849 -68.0607 -25.1629 -24.523 28.3255 -0.9759 2.2888 -52.8534 11.4284 6.84489 22.1583 -0.53 10.8316 -41.2854 11.0164 1.50269 0.786 0.112 2.5817 -3.50658e-007 1.01503e-006 -1.27834e-006 0.3601 -0.878 4.2331 7.16394e-007 2.55669e-006 2.03006e-006 1.8127 -1.216 2.2227 3.32866e-006 -5.7408e-006 -2.93623e-006 0.9571 1.114 1.7695 -3.97569e-016 -6.36111e-015 1.19271e-015 4.1246 0.487 4.1451 -3.50658e-007 1.01503e-006 -1.27834e-006 3.4052 -1.454 2.7682 7.16394e-007 2.55669e-006 2.03006e-006 1.4531 -1.795 1.2713 3.32866e-006 -5.7408e-006 -2.93623e-006 5.6954 0.21 2.1184 -3.50658e-007 1.01503e-006 -1.27834e-006 3.9766 -1.54 2.3863 7.16394e-007 2.55669e-006 2.03006e-006 1.4042 -1.926 1.125 3.32866e-006 -5.7408e-006 -2.93623e-006 2.0956 0.66 -0.3894 -3.97569e-016 -6.36111e-015 1.19271e-015 5.0395 -0.09 2.4971 -3.50658e-007 1.01503e-006 -1.27834e-006 3.7921 -1.552 1.4806 7.16394e-007 2.55669e-006 2.03006e-006 1.4655 -1.808 0.9609 3.32866e-006 -5.7408e-006 -2.93623e-006 4.9141 -1.269 0.3591 -3.50658e-007 1.01503e-006 -1.27834e-006 3.1477 -1.685 0.8462 7.16394e-007 2.55669e-006 2.03006e-006 0.8055 -1.585 0.7955 3.32866e-006 -5.7408e-006 -2.93623e-006 -1.7069 20.075 5.0056 21.2856 5.01167 6.88324 -13.6458 -0.047 -4.849 58.3875 -3.96171 18.6053 -28.3255 -0.9759 2.2888 73.7681 -35.3219 49.6671 -22.1583 -0.53 10.8316 68.7179 37.0801 -41.913 -0.786 0.112 2.5817 -2.00623e-006 -1.2406e-006 -1.77058e-006 -0.3601 -0.878 4.2331 1.7101e-006 2.6401e-006 8.6264e-007 -1.8127 -1.216 2.2227 3.18055e-015 3.18055e-015 3.18055e-015 -0.9571 1.114 1.7695 -3.97569e-016 3.18055e-015 -0 -4.1246 0.487 4.1451 -2.00623e-006 -1.2406e-006 -1.77058e-006 -3.4052 -1.454 2.7682 1.7101e-006 2.6401e-006 8.6264e-007 -1.4531 -1.795 1.2713 3.18055e-015 -3.18055e-015 1.59028e-015 -5.6954 0.21 2.1184 -2.00623e-006 -1.2406e-006 -1.77058e-006 -3.9766 -1.54 2.3863 1.7101e-006 2.6401e-006 8.6264e-007 -1.4042 -1.926 1.125 3.18055e-015 -3.18055e-015 1.59028e-015 -2.0956 0.66 -0.3894 -3.97569e-016 3.18055e-015 -0 -5.0395 -0.09 2.4971 -2.00623e-006 -1.2406e-006 -1.77058e-006 -3.7921 -1.552 1.4806 1.7101e-006 2.6401e-006 8.6264e-007 -1.4655 -1.808 0.9609 3.18055e-015 -3.18055e-015 1.59028e-015 -4.9141 -1.269 0.3592 -2.00623e-006 -1.2406e-006 -1.77058e-006 -3.1477 -1.685 0.8462 1.7101e-006 2.6401e-006 8.6264e-007 -0.8055 -1.585 0.7955 3.18055e-015 -3.18055e-015 1.59028e-015 8.367 -8.2066 0.5982 18.194 -27.8372 19.0139 2.1923 -43.463 -0.4932 -59.1479 42.1233 37.3517 0.7333 -45.8593 -2.6451 15.5611 26.3048 4.06507 -8.367 -8.2066 0.5982 9.42529 -12.1567 -15.0454 -2.1923 -43.463 -0.4931 -75.522 62.1195 49.1084 -0.7333 -45.8593 -2.6451 10.2324 15.8595 6.16808 
